<svg width="550" height="327" viewBox="0 0 550 327" fill="none" xmlns="http://www.w3.org/2000/svg">
<g filter="url(#filter0_d_406_2)">
<mask id="path-1-outside-1_406_2" maskUnits="userSpaceOnUse" x="28" y="23" width="494" height="273" fill="black">
<rect fill="white" x="28" y="23" width="494" height="273"/>
<path d="M165.241 281.121C151.835 281.121 138.557 279.574 125.409 276.48C112.518 273.387 100.143 268.875 88.2841 262.945C76.4247 256.758 65.9833 248.637 56.9598 238.582C47.9364 228.527 43.038 216.539 42.2645 202.617V186.375V63.0117C42.2645 55.793 44.8427 49.8633 49.9989 45.2227C55.413 40.3242 61.7294 37.875 68.9481 37.875C84.4169 39.1641 92.7958 47.543 94.0848 63.0117V190.629C94.6005 198.621 97.5653 205.324 102.979 210.738C108.651 215.895 114.839 220.02 121.542 223.113C128.503 226.207 135.593 228.527 142.811 230.074C150.288 231.621 157.765 232.395 165.241 232.395C172.718 232.395 180.065 231.621 187.284 230.074C194.761 228.527 201.85 226.207 208.554 223.113C215.515 220.02 221.702 215.895 227.116 210.738C232.788 205.324 235.882 198.621 236.397 190.629V63.0117C236.397 55.793 238.975 49.8633 244.132 45.2227C249.546 40.3242 255.862 37.875 263.081 37.875C278.55 39.1641 287.057 47.543 288.604 63.0117V186.375V202.617C287.831 216.539 282.804 228.527 273.522 238.582C264.499 248.637 254.057 256.758 242.198 262.945C230.339 268.875 217.835 273.387 204.686 276.48C191.796 279.574 178.647 281.121 165.241 281.121ZM352.97 95.8828C343.173 96.3984 334.923 100.137 328.22 107.098C321.775 114.059 317.134 122.051 314.298 131.074C311.462 139.84 310.044 148.863 310.044 158.145C310.044 167.426 311.333 176.578 313.911 185.602C316.747 194.625 321.517 202.617 328.22 209.578C334.923 216.281 343.173 219.891 352.97 220.406H480.587C496.829 221.953 505.724 230.848 507.271 247.09C507.013 254.309 504.306 260.367 499.15 265.266C493.993 269.906 487.806 272.227 480.587 272.227H357.224H339.435C321.388 271.195 306.564 264.363 294.962 251.73C283.36 238.84 274.982 224.273 269.825 208.031C264.927 191.789 262.478 175.16 262.478 158.145C262.478 145.512 263.896 133.008 266.732 120.633C269.568 108.258 273.95 96.5273 279.88 85.4414C286.068 74.0977 294.189 64.4297 304.243 56.4375C314.556 48.4453 326.286 44.3203 339.435 44.0625H346.782H480.587C496.829 45.6094 505.724 54.5039 507.271 70.7461C507.271 77.9648 504.564 84.0234 499.15 88.9219C493.993 93.5625 487.806 95.8828 480.587 95.8828H352.97Z"/>
</mask>
<path d="M125.409 276.48L122.142 290.094L122.172 290.101L122.203 290.108L125.409 276.48ZM88.2841 262.945L81.8081 275.358L81.9151 275.413L82.0231 275.467L88.2841 262.945ZM42.2645 202.617H28.2645V203.006L28.2861 203.394L42.2645 202.617ZM49.9989 45.2227L59.3644 55.6288L59.3781 55.6165L59.3917 55.6042L49.9989 45.2227ZM68.9481 37.875L70.1108 23.9234L69.5304 23.875H68.9481V37.875ZM94.0848 63.0117H108.085V62.4294L108.036 61.8491L94.0848 63.0117ZM94.0848 190.629H80.0848V191.08L80.1139 191.53L94.0848 190.629ZM102.979 210.738L93.0799 220.638L93.3154 220.873L93.562 221.097L102.979 210.738ZM121.542 223.113L115.675 235.825L115.765 235.866L115.856 235.907L121.542 223.113ZM142.811 230.074L139.878 243.763L139.926 243.774L139.975 243.784L142.811 230.074ZM187.284 230.074L184.448 216.365L184.399 216.375L184.351 216.385L187.284 230.074ZM208.554 223.113L202.868 210.32L202.777 210.36L202.687 210.402L208.554 223.113ZM227.116 210.738L236.771 220.876L236.777 220.871L236.783 220.865L227.116 210.738ZM236.397 190.629L250.368 191.53L250.397 191.08V190.629H236.397ZM244.132 45.2227L253.497 55.6288L253.511 55.6165L253.525 55.6042L244.132 45.2227ZM263.081 37.875L264.244 23.9234L263.663 23.875H263.081V37.875ZM288.604 63.0117H302.604V62.3135L302.535 61.6187L288.604 63.0117ZM288.604 202.617L302.583 203.394L302.604 203.006V202.617H288.604ZM273.522 238.582L263.235 229.086L263.169 229.158L263.103 229.231L273.522 238.582ZM242.198 262.945L248.459 275.467L248.567 275.413L248.674 275.358L242.198 262.945ZM204.686 276.48L201.48 262.853L201.449 262.86L201.419 262.867L204.686 276.48ZM165.241 267.121C152.923 267.121 140.721 265.701 128.616 262.853L122.203 290.108C136.394 293.447 150.747 295.121 165.241 295.121V267.121ZM128.676 262.867C116.822 260.022 105.451 255.877 94.545 250.423L82.0231 275.467C94.8354 281.873 108.215 286.751 122.142 290.094L128.676 262.867ZM94.76 250.533C84.403 245.129 75.2936 238.05 67.3792 229.231L46.5404 247.933C56.6729 259.223 68.4464 268.386 81.8081 275.358L94.76 250.533ZM67.3792 229.231C60.5555 221.628 56.8459 212.693 56.243 201.841L28.2861 203.394C29.23 220.385 35.3173 235.427 46.5404 247.933L67.3792 229.231ZM56.2645 202.617V186.375H28.2645V202.617H56.2645ZM56.2645 186.375V63.0117H28.2645V186.375H56.2645ZM56.2645 63.0117C56.2645 59.5789 57.2914 57.4945 59.3644 55.6288L40.6334 34.8165C32.3939 42.2321 28.2645 52.0071 28.2645 63.0117H56.2645ZM59.3917 55.6042C62.2642 53.0052 65.2442 51.875 68.9481 51.875V23.875C58.2145 23.875 48.5617 27.6432 40.6061 34.8412L59.3917 55.6042ZM67.7855 51.8266C73.2578 52.2827 75.7302 53.8213 76.9344 55.0255C78.1386 56.2297 79.6772 58.7021 80.1332 64.1744L108.036 61.8491C107.203 51.8526 103.908 42.4012 96.7334 35.2265C89.5586 28.0518 80.1072 24.7564 70.1108 23.9234L67.7855 51.8266ZM80.0848 63.0117V190.629H108.085V63.0117H80.0848ZM80.1139 191.53C80.8375 202.746 85.1424 212.7 93.0799 220.638L112.879 200.839C109.988 197.948 108.363 194.496 108.056 189.728L80.1139 191.53ZM93.562 221.097C100.25 227.177 107.626 232.11 115.675 235.825L127.409 210.402C122.051 207.929 117.053 204.612 112.397 200.379L93.562 221.097ZM115.856 235.907C123.673 239.381 131.684 242.008 139.878 243.763L145.745 216.385C139.502 215.047 133.333 213.033 127.228 210.32L115.856 235.907ZM139.975 243.784C148.365 245.52 156.792 246.395 165.241 246.395V218.395C158.737 218.395 152.211 217.722 145.648 216.365L139.975 243.784ZM165.241 246.395C173.691 246.395 182.022 245.52 190.217 243.763L184.351 216.385C178.108 217.723 171.744 218.395 165.241 218.395V246.395ZM190.121 243.784C198.606 242.028 206.716 239.381 214.42 235.825L202.687 210.402C196.985 213.033 190.915 215.026 184.448 216.365L190.121 243.784ZM214.24 235.907C222.638 232.174 230.174 227.159 236.771 220.876L217.461 200.6C213.23 204.63 208.391 207.865 202.868 210.32L214.24 235.907ZM236.783 220.865C245.056 212.968 249.632 202.946 250.368 191.53L222.426 189.728C222.132 194.296 220.52 197.68 217.449 200.611L236.783 220.865ZM250.397 190.629V63.0117H222.397V190.629H250.397ZM250.397 63.0117C250.397 59.5789 251.424 57.4945 253.497 55.6288L234.766 34.8165C226.527 42.2321 222.397 52.0071 222.397 63.0117H250.397ZM253.525 55.6042C256.397 53.0052 259.377 51.875 263.081 51.875V23.875C252.347 23.875 242.695 27.6432 234.739 34.8412L253.525 55.6042ZM261.918 51.8266C267.383 52.282 269.942 53.823 271.24 55.1007C272.539 56.3808 274.126 58.9268 274.674 64.4048L302.535 61.6187C301.536 51.6279 298.095 42.25 290.887 35.1512C283.677 28.05 274.248 24.757 264.244 23.9234L261.918 51.8266ZM274.604 63.0117V186.375H302.604V63.0117H274.604ZM274.604 186.375V202.617H302.604V186.375H274.604ZM274.626 201.841C274.029 212.583 270.265 221.47 263.235 229.086L283.81 248.078C295.342 235.585 301.633 220.495 302.583 203.394L274.626 201.841ZM263.103 229.231C255.189 238.05 246.079 245.129 235.722 250.533L248.674 275.358C262.036 268.386 273.809 259.223 283.942 247.933L263.103 229.231ZM235.937 250.423C225.068 255.858 213.591 260.003 201.48 262.853L207.893 290.108C222.079 286.77 235.61 281.892 248.459 275.467L235.937 250.423ZM201.419 262.867C189.611 265.701 177.559 267.121 165.241 267.121V295.121C179.735 295.121 193.981 293.447 207.954 290.094L201.419 262.867ZM352.97 95.8828V81.8828H352.602L352.234 81.9022L352.97 95.8828ZM328.22 107.098L318.135 97.3867L318.04 97.4854L317.947 97.5859L328.22 107.098ZM314.298 131.074L327.618 135.384L327.636 135.328L327.654 135.272L314.298 131.074ZM313.911 185.602L300.45 189.448L300.5 189.624L300.555 189.799L313.911 185.602ZM328.22 209.578L318.135 219.289L318.227 219.384L318.32 219.478L328.22 209.578ZM352.97 220.406L352.234 234.387L352.602 234.406H352.97V220.406ZM480.587 220.406L481.914 206.469L481.252 206.406H480.587V220.406ZM507.271 247.09L521.262 247.59L521.294 246.674L521.208 245.763L507.271 247.09ZM499.15 265.266L508.515 275.672L508.655 275.546L508.792 275.416L499.15 265.266ZM339.435 272.227L338.636 286.204L339.035 286.227H339.435V272.227ZM294.962 251.73L284.556 261.096L284.603 261.148L284.651 261.2L294.962 251.73ZM269.825 208.031L256.422 212.074L256.451 212.171L256.482 212.267L269.825 208.031ZM279.88 85.4414L267.589 78.7375L267.562 78.7878L267.535 78.8383L279.88 85.4414ZM304.243 56.4375L295.667 45.3717L295.599 45.4244L295.532 45.478L304.243 56.4375ZM339.435 44.0625V30.0625H339.297L339.16 30.0652L339.435 44.0625ZM480.587 44.0625L481.914 30.1256L481.252 30.0625H480.587V44.0625ZM507.271 70.7461H521.271V70.0809L521.208 69.4188L507.271 70.7461ZM499.15 88.9219L508.515 99.328L508.529 99.3157L508.542 99.3034L499.15 88.9219ZM352.234 81.9022C338.952 82.6012 327.342 87.826 318.135 97.3867L338.304 116.809C342.504 112.447 347.394 110.196 353.706 109.863L352.234 81.9022ZM317.947 97.5859C310.098 106.063 304.402 115.869 300.942 126.877L327.654 135.272C329.866 128.232 333.451 122.054 338.492 116.609L317.947 97.5859ZM300.978 126.765C297.688 136.933 296.044 147.411 296.044 158.145H324.044C324.044 150.315 325.236 142.747 327.618 135.384L300.978 126.765ZM296.044 158.145C296.044 168.741 297.518 179.188 300.45 189.448L327.373 181.755C325.148 173.969 324.044 166.11 324.044 158.145H296.044ZM300.555 189.799C304.055 200.935 309.964 210.803 318.135 219.289L338.304 199.867C333.07 194.431 329.439 188.315 327.267 181.404L300.555 189.799ZM318.32 219.478C327.561 228.719 339.116 233.696 352.234 234.387L353.706 206.426C347.23 206.085 342.285 203.844 338.119 199.679L318.32 219.478ZM352.97 234.406H480.587V206.406H352.97V234.406ZM479.26 234.343C485.118 234.901 488.004 236.6 489.54 238.137C491.077 239.673 492.776 242.559 493.334 248.417L521.208 245.763C520.219 235.378 516.697 225.696 509.339 218.338C501.981 210.98 492.298 207.458 481.914 206.469L479.26 234.343ZM493.28 246.59C493.15 250.211 491.961 252.785 489.507 255.116L508.792 275.416C516.651 267.95 520.875 258.406 521.262 247.59L493.28 246.59ZM489.784 254.86C487.311 257.085 484.501 258.227 480.587 258.227V286.227C491.11 286.227 500.676 282.727 508.515 275.672L489.784 254.86ZM480.587 258.227H357.224V286.227H480.587V258.227ZM357.224 258.227H339.435V286.227H357.224V258.227ZM340.233 258.249C325.606 257.414 314.268 252.055 305.273 242.261L284.651 261.2C298.859 276.672 317.17 284.977 338.636 286.204L340.233 258.249ZM305.368 242.365C295.075 230.929 287.711 218.104 283.169 203.795L256.482 212.267C262.252 230.443 271.646 246.751 284.556 261.096L305.368 242.365ZM283.229 203.989C278.727 189.062 276.478 173.795 276.478 158.145H248.478C248.478 176.525 251.127 194.516 256.422 212.074L283.229 203.989ZM276.478 158.145C276.478 146.569 277.776 135.114 280.378 123.76L253.085 117.506C250.015 130.901 248.478 144.454 248.478 158.145H276.478ZM280.378 123.76C282.939 112.584 286.887 102.024 292.225 92.0445L267.535 78.8383C261.013 91.0308 256.196 103.931 253.085 117.506L280.378 123.76ZM292.171 92.1453C297.467 82.435 304.375 74.2171 312.955 67.397L295.532 45.478C284.003 54.6423 274.668 65.7603 267.589 78.7375L292.171 92.1453ZM312.819 67.5033C320.731 61.3714 329.545 58.2591 339.709 58.0598L339.16 30.0652C323.027 30.3815 308.38 35.5192 295.667 45.3717L312.819 67.5033ZM339.435 58.0625H346.782V30.0625H339.435V58.0625ZM346.782 58.0625H480.587V30.0625H346.782V58.0625ZM479.26 57.9994C485.118 58.5573 488.004 60.2566 489.54 61.793C491.077 63.3295 492.776 66.2154 493.334 72.0734L521.208 69.4188C520.219 59.0346 516.697 49.3522 509.339 41.9941C501.981 34.636 492.298 31.1145 481.914 30.1256L479.26 57.9994ZM493.271 70.7461C493.271 73.9575 492.276 76.2615 489.757 78.5404L508.542 99.3034C516.852 91.7854 521.271 81.9721 521.271 70.7461H493.271ZM489.784 78.5158C487.311 80.7416 484.501 81.8828 480.587 81.8828V109.883C491.11 109.883 500.676 106.383 508.515 99.328L489.784 78.5158ZM480.587 81.8828H352.97V109.883H480.587V81.8828Z" fill="url(#paint0_linear_406_2)" mask="url(#path-1-outside-1_406_2)"/>
</g>
<defs>
<filter id="filter0_d_406_2" x="0.464649" y="0.0750008" width="548.606" height="326.846" filterUnits="userSpaceOnUse" color-interpolation-filters="sRGB">
<feFlood flood-opacity="0" result="BackgroundImageFix"/>
<feColorMatrix in="SourceAlpha" type="matrix" values="0 0 0 0 0 0 0 0 0 0 0 0 0 0 0 0 0 0 127 0" result="hardAlpha"/>
<feOffset dy="4"/>
<feGaussianBlur stdDeviation="20.9"/>
<feComposite in2="hardAlpha" operator="out"/>
<feColorMatrix type="matrix" values="0 0 0 0 0 0 0 0 0 0 0 0 0 0 0 0 0 0 0.19 0"/>
<feBlend mode="normal" in2="BackgroundImageFix" result="effect1_dropShadow_406_2"/>
<feBlend mode="normal" in="SourceGraphic" in2="effect1_dropShadow_406_2" result="shape"/>
</filter>
<linearGradient id="paint0_linear_406_2" x1="23" y1="159.5" x2="504" y2="160.5" gradientUnits="userSpaceOnUse">
<stop stop-color="#005692"/>
<stop offset="1" stop-color="#0195EA"/>
</linearGradient>
</defs>
</svg>
